<mxfile host="app.diagrams.net" agent="Mozilla/5.0 (Windows NT 10.0; Win64; x64) AppleWebKit/537.36 (KHTML, like Gecko) Chrome/127.0.0.0 Safari/537.36 Edg/127.0.0.0" version="24.7.6">
  <diagram name="Page-1" id="mbFG9woGcZm7XtnYN0WP">
    <mxGraphModel dx="2333" dy="1358" grid="1" gridSize="10" guides="1" tooltips="1" connect="1" arrows="1" fold="1" page="1" pageScale="1" pageWidth="1169" pageHeight="1654" math="0" shadow="0">
      <root>
        <mxCell id="0" />
        <mxCell id="1" parent="0" />
        <mxCell id="64xS8vb8ie7VQ3jii2GB-22" value="" style="edgeStyle=orthogonalEdgeStyle;rounded=0;orthogonalLoop=1;jettySize=auto;html=1;" edge="1" parent="1" source="TwmY0cZ2itvJVAKErfoa-1" target="TwmY0cZ2itvJVAKErfoa-4">
          <mxGeometry relative="1" as="geometry" />
        </mxCell>
        <mxCell id="TwmY0cZ2itvJVAKErfoa-1" value="Mulai" style="strokeWidth=2;html=1;shape=mxgraph.flowchart.start_2;whiteSpace=wrap;" parent="1" vertex="1">
          <mxGeometry x="154" y="30" width="120" height="80" as="geometry" />
        </mxCell>
        <mxCell id="64xS8vb8ie7VQ3jii2GB-46" value="" style="edgeStyle=orthogonalEdgeStyle;rounded=0;orthogonalLoop=1;jettySize=auto;html=1;" edge="1" parent="1" source="TwmY0cZ2itvJVAKErfoa-2" target="64xS8vb8ie7VQ3jii2GB-45">
          <mxGeometry relative="1" as="geometry" />
        </mxCell>
        <mxCell id="TwmY0cZ2itvJVAKErfoa-2" value="Menampilkan&lt;div&gt;Berita Terbaru&lt;/div&gt;" style="shape=parallelogram;html=1;strokeWidth=2;perimeter=parallelogramPerimeter;whiteSpace=wrap;rounded=1;arcSize=12;size=0.23;" parent="1" vertex="1">
          <mxGeometry x="300" y="300" width="170" height="60" as="geometry" />
        </mxCell>
        <mxCell id="64xS8vb8ie7VQ3jii2GB-24" value="" style="edgeStyle=orthogonalEdgeStyle;rounded=0;orthogonalLoop=1;jettySize=auto;html=1;" edge="1" parent="1" source="TwmY0cZ2itvJVAKErfoa-4" target="64xS8vb8ie7VQ3jii2GB-23">
          <mxGeometry relative="1" as="geometry" />
        </mxCell>
        <mxCell id="TwmY0cZ2itvJVAKErfoa-4" value="&lt;div style=&quot;text-align: justify;&quot;&gt;1. Berita&lt;/div&gt;&lt;div style=&quot;text-align: justify;&quot;&gt;2. Notifikasi&lt;/div&gt;&lt;div style=&quot;text-align: justify;&quot;&gt;3. Profile&lt;/div&gt;" style="rounded=1;whiteSpace=wrap;html=1;absoluteArcSize=1;arcSize=14;strokeWidth=2;" parent="1" vertex="1">
          <mxGeometry x="154" y="150" width="120" height="100" as="geometry" />
        </mxCell>
        <mxCell id="64xS8vb8ie7VQ3jii2GB-10" value="" style="edgeStyle=orthogonalEdgeStyle;rounded=0;orthogonalLoop=1;jettySize=auto;html=1;" edge="1" parent="1" source="64xS8vb8ie7VQ3jii2GB-5" target="64xS8vb8ie7VQ3jii2GB-8">
          <mxGeometry relative="1" as="geometry" />
        </mxCell>
        <mxCell id="64xS8vb8ie7VQ3jii2GB-13" value="" style="edgeStyle=orthogonalEdgeStyle;rounded=0;orthogonalLoop=1;jettySize=auto;html=1;" edge="1" parent="1" source="64xS8vb8ie7VQ3jii2GB-5" target="64xS8vb8ie7VQ3jii2GB-12">
          <mxGeometry relative="1" as="geometry" />
        </mxCell>
        <mxCell id="64xS8vb8ie7VQ3jii2GB-5" value="Semua&lt;div&gt;Berita?&lt;/div&gt;" style="strokeWidth=2;html=1;shape=mxgraph.flowchart.decision;whiteSpace=wrap;" vertex="1" parent="1">
          <mxGeometry x="730" y="345" width="100" height="100" as="geometry" />
        </mxCell>
        <mxCell id="64xS8vb8ie7VQ3jii2GB-57" style="edgeStyle=orthogonalEdgeStyle;rounded=0;orthogonalLoop=1;jettySize=auto;html=1;exitX=1;exitY=0.5;exitDx=0;exitDy=0;entryX=1;entryY=0.5;entryDx=0;entryDy=0;" edge="1" parent="1" source="64xS8vb8ie7VQ3jii2GB-8" target="64xS8vb8ie7VQ3jii2GB-52">
          <mxGeometry relative="1" as="geometry">
            <Array as="points">
              <mxPoint x="1040" y="395" />
              <mxPoint x="1040" y="260" />
            </Array>
          </mxGeometry>
        </mxCell>
        <mxCell id="64xS8vb8ie7VQ3jii2GB-8" value="Menampilkan&lt;div&gt;Semua Berita&lt;/div&gt;" style="shape=parallelogram;html=1;strokeWidth=2;perimeter=parallelogramPerimeter;whiteSpace=wrap;rounded=1;arcSize=12;size=0.23;" vertex="1" parent="1">
          <mxGeometry x="860" y="365" width="140" height="60" as="geometry" />
        </mxCell>
        <mxCell id="64xS8vb8ie7VQ3jii2GB-11" value="Ya" style="text;html=1;align=center;verticalAlign=middle;resizable=0;points=[];autosize=1;strokeColor=none;fillColor=none;" vertex="1" parent="1">
          <mxGeometry x="825" y="365" width="40" height="30" as="geometry" />
        </mxCell>
        <mxCell id="64xS8vb8ie7VQ3jii2GB-16" value="" style="edgeStyle=orthogonalEdgeStyle;rounded=0;orthogonalLoop=1;jettySize=auto;html=1;" edge="1" parent="1" source="64xS8vb8ie7VQ3jii2GB-12" target="64xS8vb8ie7VQ3jii2GB-15">
          <mxGeometry relative="1" as="geometry" />
        </mxCell>
        <mxCell id="64xS8vb8ie7VQ3jii2GB-59" value="" style="edgeStyle=orthogonalEdgeStyle;rounded=0;orthogonalLoop=1;jettySize=auto;html=1;" edge="1" parent="1" source="64xS8vb8ie7VQ3jii2GB-12" target="64xS8vb8ie7VQ3jii2GB-58">
          <mxGeometry relative="1" as="geometry">
            <Array as="points">
              <mxPoint x="780" y="600" />
              <mxPoint x="1015" y="600" />
            </Array>
          </mxGeometry>
        </mxCell>
        <mxCell id="64xS8vb8ie7VQ3jii2GB-12" value="Berita&lt;div&gt;HOT?&lt;/div&gt;" style="strokeWidth=2;html=1;shape=mxgraph.flowchart.decision;whiteSpace=wrap;" vertex="1" parent="1">
          <mxGeometry x="730" y="475" width="100" height="100" as="geometry" />
        </mxCell>
        <mxCell id="64xS8vb8ie7VQ3jii2GB-14" value="Tidak" style="text;html=1;align=center;verticalAlign=middle;resizable=0;points=[];autosize=1;strokeColor=none;fillColor=none;" vertex="1" parent="1">
          <mxGeometry x="780" y="445" width="50" height="30" as="geometry" />
        </mxCell>
        <mxCell id="64xS8vb8ie7VQ3jii2GB-56" style="edgeStyle=orthogonalEdgeStyle;rounded=0;orthogonalLoop=1;jettySize=auto;html=1;exitX=1;exitY=0.5;exitDx=0;exitDy=0;" edge="1" parent="1" source="64xS8vb8ie7VQ3jii2GB-15">
          <mxGeometry relative="1" as="geometry">
            <mxPoint x="1040" y="400" as="targetPoint" />
            <Array as="points">
              <mxPoint x="1041" y="525" />
              <mxPoint x="1041" y="400" />
            </Array>
          </mxGeometry>
        </mxCell>
        <mxCell id="64xS8vb8ie7VQ3jii2GB-15" value="Menampilkan&lt;div&gt;Berita Trending&lt;/div&gt;" style="shape=parallelogram;html=1;strokeWidth=2;perimeter=parallelogramPerimeter;whiteSpace=wrap;rounded=1;arcSize=12;size=0.23;" vertex="1" parent="1">
          <mxGeometry x="860" y="495" width="140" height="60" as="geometry" />
        </mxCell>
        <mxCell id="64xS8vb8ie7VQ3jii2GB-17" value="Ya" style="text;html=1;align=center;verticalAlign=middle;resizable=0;points=[];autosize=1;strokeColor=none;fillColor=none;" vertex="1" parent="1">
          <mxGeometry x="830" y="495" width="40" height="30" as="geometry" />
        </mxCell>
        <mxCell id="64xS8vb8ie7VQ3jii2GB-25" value="" style="edgeStyle=orthogonalEdgeStyle;rounded=0;orthogonalLoop=1;jettySize=auto;html=1;" edge="1" parent="1" source="64xS8vb8ie7VQ3jii2GB-23" target="TwmY0cZ2itvJVAKErfoa-2">
          <mxGeometry relative="1" as="geometry" />
        </mxCell>
        <mxCell id="64xS8vb8ie7VQ3jii2GB-28" value="" style="edgeStyle=orthogonalEdgeStyle;rounded=0;orthogonalLoop=1;jettySize=auto;html=1;" edge="1" parent="1" source="64xS8vb8ie7VQ3jii2GB-23" target="64xS8vb8ie7VQ3jii2GB-27">
          <mxGeometry relative="1" as="geometry" />
        </mxCell>
        <mxCell id="64xS8vb8ie7VQ3jii2GB-23" value="Berita?" style="strokeWidth=2;html=1;shape=mxgraph.flowchart.decision;whiteSpace=wrap;" vertex="1" parent="1">
          <mxGeometry x="164" y="280" width="100" height="100" as="geometry" />
        </mxCell>
        <mxCell id="64xS8vb8ie7VQ3jii2GB-26" value="Ya" style="text;html=1;align=center;verticalAlign=middle;resizable=0;points=[];autosize=1;strokeColor=none;fillColor=none;" vertex="1" parent="1">
          <mxGeometry x="264" y="300" width="40" height="30" as="geometry" />
        </mxCell>
        <mxCell id="64xS8vb8ie7VQ3jii2GB-33" value="" style="edgeStyle=orthogonalEdgeStyle;rounded=0;orthogonalLoop=1;jettySize=auto;html=1;" edge="1" parent="1" source="64xS8vb8ie7VQ3jii2GB-27" target="64xS8vb8ie7VQ3jii2GB-32">
          <mxGeometry relative="1" as="geometry" />
        </mxCell>
        <mxCell id="64xS8vb8ie7VQ3jii2GB-36" value="" style="edgeStyle=orthogonalEdgeStyle;rounded=0;orthogonalLoop=1;jettySize=auto;html=1;" edge="1" parent="1" source="64xS8vb8ie7VQ3jii2GB-27" target="64xS8vb8ie7VQ3jii2GB-35">
          <mxGeometry relative="1" as="geometry" />
        </mxCell>
        <mxCell id="64xS8vb8ie7VQ3jii2GB-27" value="Notifikasi?" style="strokeWidth=2;html=1;shape=mxgraph.flowchart.decision;whiteSpace=wrap;" vertex="1" parent="1">
          <mxGeometry x="164" y="410" width="100" height="100" as="geometry" />
        </mxCell>
        <mxCell id="64xS8vb8ie7VQ3jii2GB-66" style="edgeStyle=orthogonalEdgeStyle;rounded=0;orthogonalLoop=1;jettySize=auto;html=1;exitX=1;exitY=0.5;exitDx=0;exitDy=0;entryX=1;entryY=0.5;entryDx=0;entryDy=0;" edge="1" parent="1" source="64xS8vb8ie7VQ3jii2GB-32" target="TwmY0cZ2itvJVAKErfoa-4">
          <mxGeometry relative="1" as="geometry">
            <mxPoint x="600" y="190" as="targetPoint" />
            <Array as="points">
              <mxPoint x="590" y="460" />
              <mxPoint x="590" y="200" />
            </Array>
          </mxGeometry>
        </mxCell>
        <mxCell id="64xS8vb8ie7VQ3jii2GB-32" value="Menampilkan Notif&lt;div&gt;Berita Terbaru&lt;/div&gt;&lt;div&gt;atau Replay Komentar&lt;/div&gt;" style="shape=parallelogram;html=1;strokeWidth=2;perimeter=parallelogramPerimeter;whiteSpace=wrap;rounded=1;arcSize=12;size=0.23;" vertex="1" parent="1">
          <mxGeometry x="304" y="430" width="200" height="60" as="geometry" />
        </mxCell>
        <mxCell id="64xS8vb8ie7VQ3jii2GB-34" value="Ya" style="text;html=1;align=center;verticalAlign=middle;resizable=0;points=[];autosize=1;strokeColor=none;fillColor=none;" vertex="1" parent="1">
          <mxGeometry x="264" y="430" width="40" height="30" as="geometry" />
        </mxCell>
        <mxCell id="64xS8vb8ie7VQ3jii2GB-40" value="" style="edgeStyle=orthogonalEdgeStyle;rounded=0;orthogonalLoop=1;jettySize=auto;html=1;" edge="1" parent="1" source="64xS8vb8ie7VQ3jii2GB-35" target="64xS8vb8ie7VQ3jii2GB-39">
          <mxGeometry relative="1" as="geometry" />
        </mxCell>
        <mxCell id="64xS8vb8ie7VQ3jii2GB-43" value="" style="edgeStyle=orthogonalEdgeStyle;rounded=0;orthogonalLoop=1;jettySize=auto;html=1;" edge="1" parent="1" source="64xS8vb8ie7VQ3jii2GB-35" target="64xS8vb8ie7VQ3jii2GB-42">
          <mxGeometry relative="1" as="geometry" />
        </mxCell>
        <mxCell id="64xS8vb8ie7VQ3jii2GB-35" value="Profile?" style="strokeWidth=2;html=1;shape=mxgraph.flowchart.decision;whiteSpace=wrap;" vertex="1" parent="1">
          <mxGeometry x="164" y="540" width="100" height="100" as="geometry" />
        </mxCell>
        <mxCell id="64xS8vb8ie7VQ3jii2GB-37" value="Tidak" style="text;html=1;align=center;verticalAlign=middle;resizable=0;points=[];autosize=1;strokeColor=none;fillColor=none;" vertex="1" parent="1">
          <mxGeometry x="215" y="378" width="50" height="30" as="geometry" />
        </mxCell>
        <mxCell id="64xS8vb8ie7VQ3jii2GB-38" value="Tidak" style="text;html=1;align=center;verticalAlign=middle;resizable=0;points=[];autosize=1;strokeColor=none;fillColor=none;" vertex="1" parent="1">
          <mxGeometry x="215" y="510" width="50" height="30" as="geometry" />
        </mxCell>
        <mxCell id="64xS8vb8ie7VQ3jii2GB-50" value="" style="edgeStyle=orthogonalEdgeStyle;rounded=0;orthogonalLoop=1;jettySize=auto;html=1;" edge="1" parent="1" source="64xS8vb8ie7VQ3jii2GB-39">
          <mxGeometry relative="1" as="geometry">
            <mxPoint x="590" y="460" as="targetPoint" />
          </mxGeometry>
        </mxCell>
        <mxCell id="64xS8vb8ie7VQ3jii2GB-39" value="Menampilkan&lt;div&gt;Data Profile&lt;/div&gt;" style="shape=parallelogram;html=1;strokeWidth=2;perimeter=parallelogramPerimeter;whiteSpace=wrap;rounded=1;arcSize=12;size=0.23;" vertex="1" parent="1">
          <mxGeometry x="300" y="560" width="170" height="60" as="geometry" />
        </mxCell>
        <mxCell id="64xS8vb8ie7VQ3jii2GB-41" value="Ya" style="text;html=1;align=center;verticalAlign=middle;resizable=0;points=[];autosize=1;strokeColor=none;fillColor=none;" vertex="1" parent="1">
          <mxGeometry x="265" y="560" width="40" height="30" as="geometry" />
        </mxCell>
        <mxCell id="64xS8vb8ie7VQ3jii2GB-42" value="Selesai" style="strokeWidth=2;html=1;shape=mxgraph.flowchart.terminator;whiteSpace=wrap;" vertex="1" parent="1">
          <mxGeometry x="164" y="680" width="100" height="60" as="geometry" />
        </mxCell>
        <mxCell id="64xS8vb8ie7VQ3jii2GB-44" value="Tidak" style="text;html=1;align=center;verticalAlign=middle;resizable=0;points=[];autosize=1;strokeColor=none;fillColor=none;" vertex="1" parent="1">
          <mxGeometry x="215" y="640" width="50" height="30" as="geometry" />
        </mxCell>
        <mxCell id="64xS8vb8ie7VQ3jii2GB-45" value="A" style="verticalLabelPosition=middle;verticalAlign=middle;html=1;shape=mxgraph.flowchart.on-page_reference;labelPosition=center;align=center;" vertex="1" parent="1">
          <mxGeometry x="490" y="300" width="60" height="60" as="geometry" />
        </mxCell>
        <mxCell id="64xS8vb8ie7VQ3jii2GB-54" value="" style="edgeStyle=orthogonalEdgeStyle;rounded=0;orthogonalLoop=1;jettySize=auto;html=1;" edge="1" parent="1" source="64xS8vb8ie7VQ3jii2GB-51" target="64xS8vb8ie7VQ3jii2GB-52">
          <mxGeometry relative="1" as="geometry" />
        </mxCell>
        <mxCell id="64xS8vb8ie7VQ3jii2GB-51" value="A" style="verticalLabelPosition=middle;verticalAlign=middle;html=1;shape=mxgraph.flowchart.on-page_reference;labelPosition=center;align=center;" vertex="1" parent="1">
          <mxGeometry x="750" y="100" width="60" height="60" as="geometry" />
        </mxCell>
        <mxCell id="64xS8vb8ie7VQ3jii2GB-55" value="" style="edgeStyle=orthogonalEdgeStyle;rounded=0;orthogonalLoop=1;jettySize=auto;html=1;" edge="1" parent="1" source="64xS8vb8ie7VQ3jii2GB-52" target="64xS8vb8ie7VQ3jii2GB-5">
          <mxGeometry relative="1" as="geometry" />
        </mxCell>
        <mxCell id="64xS8vb8ie7VQ3jii2GB-52" value="1. Semua Berita&lt;div&gt;2. Berita HOT&lt;/div&gt;" style="rounded=1;whiteSpace=wrap;html=1;absoluteArcSize=1;arcSize=14;strokeWidth=2;align=center;" vertex="1" parent="1">
          <mxGeometry x="720" y="210" width="120" height="100" as="geometry" />
        </mxCell>
        <mxCell id="64xS8vb8ie7VQ3jii2GB-86" value="" style="edgeStyle=orthogonalEdgeStyle;rounded=0;orthogonalLoop=1;jettySize=auto;html=1;" edge="1" parent="1" source="64xS8vb8ie7VQ3jii2GB-58" target="64xS8vb8ie7VQ3jii2GB-67">
          <mxGeometry relative="1" as="geometry" />
        </mxCell>
        <mxCell id="64xS8vb8ie7VQ3jii2GB-58" value="Like atau Komen&lt;div&gt;Berita&lt;/div&gt;" style="rounded=1;whiteSpace=wrap;html=1;absoluteArcSize=1;arcSize=14;strokeWidth=2;" vertex="1" parent="1">
          <mxGeometry x="960" y="630" width="110" height="100" as="geometry" />
        </mxCell>
        <mxCell id="64xS8vb8ie7VQ3jii2GB-60" value="Tidak" style="text;html=1;align=center;verticalAlign=middle;resizable=0;points=[];autosize=1;strokeColor=none;fillColor=none;" vertex="1" parent="1">
          <mxGeometry x="785" y="571" width="50" height="30" as="geometry" />
        </mxCell>
        <mxCell id="64xS8vb8ie7VQ3jii2GB-74" value="" style="edgeStyle=orthogonalEdgeStyle;rounded=0;orthogonalLoop=1;jettySize=auto;html=1;" edge="1" parent="1" source="64xS8vb8ie7VQ3jii2GB-67" target="64xS8vb8ie7VQ3jii2GB-73">
          <mxGeometry relative="1" as="geometry" />
        </mxCell>
        <mxCell id="64xS8vb8ie7VQ3jii2GB-87" value="" style="edgeStyle=orthogonalEdgeStyle;rounded=0;orthogonalLoop=1;jettySize=auto;html=1;" edge="1" parent="1" source="64xS8vb8ie7VQ3jii2GB-67" target="64xS8vb8ie7VQ3jii2GB-79">
          <mxGeometry relative="1" as="geometry" />
        </mxCell>
        <mxCell id="64xS8vb8ie7VQ3jii2GB-67" value="Apakah&lt;div&gt;sudah Login?&lt;/div&gt;" style="strokeWidth=2;html=1;shape=mxgraph.flowchart.decision;whiteSpace=wrap;" vertex="1" parent="1">
          <mxGeometry x="957.5" y="770" width="115" height="110" as="geometry" />
        </mxCell>
        <mxCell id="64xS8vb8ie7VQ3jii2GB-73" value="Like Berita&lt;div&gt;atau&lt;/div&gt;&lt;div&gt;Komen Berita&lt;/div&gt;&lt;div&gt;Diizinkan&lt;/div&gt;" style="rounded=1;whiteSpace=wrap;html=1;absoluteArcSize=1;arcSize=14;strokeWidth=2;" vertex="1" parent="1">
          <mxGeometry x="805" y="775" width="100" height="100" as="geometry" />
        </mxCell>
        <mxCell id="64xS8vb8ie7VQ3jii2GB-75" value="Ya" style="text;html=1;align=center;verticalAlign=middle;resizable=0;points=[];autosize=1;strokeColor=none;fillColor=none;" vertex="1" parent="1">
          <mxGeometry x="915" y="790" width="40" height="30" as="geometry" />
        </mxCell>
        <mxCell id="64xS8vb8ie7VQ3jii2GB-84" value="" style="edgeStyle=orthogonalEdgeStyle;rounded=0;orthogonalLoop=1;jettySize=auto;html=1;" edge="1" parent="1" source="64xS8vb8ie7VQ3jii2GB-79" target="64xS8vb8ie7VQ3jii2GB-83">
          <mxGeometry relative="1" as="geometry" />
        </mxCell>
        <mxCell id="64xS8vb8ie7VQ3jii2GB-90" value="" style="edgeStyle=orthogonalEdgeStyle;rounded=0;orthogonalLoop=1;jettySize=auto;html=1;" edge="1" parent="1" source="64xS8vb8ie7VQ3jii2GB-79" target="64xS8vb8ie7VQ3jii2GB-89">
          <mxGeometry relative="1" as="geometry" />
        </mxCell>
        <mxCell id="64xS8vb8ie7VQ3jii2GB-79" value="Apakah&lt;div&gt;sudah&lt;/div&gt;&lt;div&gt;memiliki akun?&lt;/div&gt;" style="strokeWidth=2;html=1;shape=mxgraph.flowchart.decision;whiteSpace=wrap;" vertex="1" parent="1">
          <mxGeometry x="950" y="910" width="130" height="140" as="geometry" />
        </mxCell>
        <mxCell id="64xS8vb8ie7VQ3jii2GB-83" value="Menampilkan&lt;div&gt;halaman&lt;/div&gt;&lt;div&gt;registrasi akun&lt;/div&gt;" style="shape=parallelogram;html=1;strokeWidth=2;perimeter=parallelogramPerimeter;whiteSpace=wrap;rounded=1;arcSize=12;size=0.23;" vertex="1" parent="1">
          <mxGeometry x="932.5" y="1090" width="165" height="70" as="geometry" />
        </mxCell>
        <mxCell id="64xS8vb8ie7VQ3jii2GB-85" value="Tidak" style="text;html=1;align=center;verticalAlign=middle;resizable=0;points=[];autosize=1;strokeColor=none;fillColor=none;" vertex="1" parent="1">
          <mxGeometry x="1020" y="1050" width="50" height="30" as="geometry" />
        </mxCell>
        <mxCell id="64xS8vb8ie7VQ3jii2GB-88" value="Tidak" style="text;html=1;align=center;verticalAlign=middle;resizable=0;points=[];autosize=1;strokeColor=none;fillColor=none;" vertex="1" parent="1">
          <mxGeometry x="1022.5" y="880" width="50" height="30" as="geometry" />
        </mxCell>
        <mxCell id="64xS8vb8ie7VQ3jii2GB-94" value="" style="edgeStyle=orthogonalEdgeStyle;rounded=0;orthogonalLoop=1;jettySize=auto;html=1;" edge="1" parent="1" source="64xS8vb8ie7VQ3jii2GB-89" target="64xS8vb8ie7VQ3jii2GB-93">
          <mxGeometry relative="1" as="geometry" />
        </mxCell>
        <mxCell id="64xS8vb8ie7VQ3jii2GB-89" value="Menampilkan&lt;div&gt;halaman&lt;/div&gt;&lt;div&gt;login akun&lt;/div&gt;" style="shape=parallelogram;html=1;strokeWidth=2;perimeter=parallelogramPerimeter;whiteSpace=wrap;rounded=1;arcSize=12;size=0.23;" vertex="1" parent="1">
          <mxGeometry x="745" y="945" width="160" height="70" as="geometry" />
        </mxCell>
        <mxCell id="64xS8vb8ie7VQ3jii2GB-91" value="Ya" style="text;html=1;align=center;verticalAlign=middle;resizable=0;points=[];autosize=1;strokeColor=none;fillColor=none;" vertex="1" parent="1">
          <mxGeometry x="905" y="945" width="40" height="30" as="geometry" />
        </mxCell>
        <mxCell id="64xS8vb8ie7VQ3jii2GB-92" style="edgeStyle=orthogonalEdgeStyle;rounded=0;orthogonalLoop=1;jettySize=auto;html=1;exitX=0.5;exitY=1;exitDx=0;exitDy=0;entryX=0.444;entryY=0.961;entryDx=0;entryDy=0;entryPerimeter=0;" edge="1" parent="1" source="64xS8vb8ie7VQ3jii2GB-83" target="64xS8vb8ie7VQ3jii2GB-89">
          <mxGeometry relative="1" as="geometry" />
        </mxCell>
        <mxCell id="64xS8vb8ie7VQ3jii2GB-97" value="" style="edgeStyle=orthogonalEdgeStyle;rounded=0;orthogonalLoop=1;jettySize=auto;html=1;" edge="1" parent="1" source="64xS8vb8ie7VQ3jii2GB-93" target="64xS8vb8ie7VQ3jii2GB-96">
          <mxGeometry relative="1" as="geometry" />
        </mxCell>
        <mxCell id="64xS8vb8ie7VQ3jii2GB-93" value="Validasi&lt;div&gt;Akun&lt;/div&gt;" style="rounded=1;whiteSpace=wrap;html=1;absoluteArcSize=1;arcSize=14;strokeWidth=2;" vertex="1" parent="1">
          <mxGeometry x="630" y="942.5" width="80" height="75" as="geometry" />
        </mxCell>
        <mxCell id="64xS8vb8ie7VQ3jii2GB-98" style="edgeStyle=orthogonalEdgeStyle;rounded=0;orthogonalLoop=1;jettySize=auto;html=1;exitX=0.5;exitY=0;exitDx=0;exitDy=0;exitPerimeter=0;entryX=0;entryY=0.5;entryDx=0;entryDy=0;" edge="1" parent="1" source="64xS8vb8ie7VQ3jii2GB-96" target="64xS8vb8ie7VQ3jii2GB-73">
          <mxGeometry relative="1" as="geometry" />
        </mxCell>
        <mxCell id="64xS8vb8ie7VQ3jii2GB-100" style="edgeStyle=orthogonalEdgeStyle;rounded=0;orthogonalLoop=1;jettySize=auto;html=1;exitX=0.5;exitY=1;exitDx=0;exitDy=0;exitPerimeter=0;" edge="1" parent="1" source="64xS8vb8ie7VQ3jii2GB-96">
          <mxGeometry relative="1" as="geometry">
            <mxPoint x="816" y="1178" as="targetPoint" />
            <mxPoint x="531" y="1033" as="sourcePoint" />
            <Array as="points">
              <mxPoint x="520" y="1238" />
              <mxPoint x="816" y="1238" />
            </Array>
          </mxGeometry>
        </mxCell>
        <mxCell id="64xS8vb8ie7VQ3jii2GB-96" value="Akun tersedia&lt;div&gt;dan benar?&lt;/div&gt;" style="strokeWidth=2;html=1;shape=mxgraph.flowchart.decision;whiteSpace=wrap;" vertex="1" parent="1">
          <mxGeometry x="465" y="925" width="110" height="110" as="geometry" />
        </mxCell>
        <mxCell id="64xS8vb8ie7VQ3jii2GB-99" value="Ya" style="text;html=1;align=center;verticalAlign=middle;resizable=0;points=[];autosize=1;strokeColor=none;fillColor=none;" vertex="1" parent="1">
          <mxGeometry x="530" y="895" width="40" height="30" as="geometry" />
        </mxCell>
        <mxCell id="64xS8vb8ie7VQ3jii2GB-101" value="Tidak" style="text;html=1;align=center;verticalAlign=middle;resizable=0;points=[];autosize=1;strokeColor=none;fillColor=none;" vertex="1" parent="1">
          <mxGeometry x="520" y="1028" width="50" height="30" as="geometry" />
        </mxCell>
      </root>
    </mxGraphModel>
  </diagram>
</mxfile>
